<svg width="49" height="102" viewBox="0 0 49 102" fill="none" xmlns="http://www.w3.org/2000/svg">
<g opacity="0.2">
<circle cx="43.3462" cy="5.65385" r="5.65385" transform="rotate(90 43.3462 5.65385)" fill="#34AAFC"/>
<circle cx="43.3462" cy="28.2696" r="5.65385" transform="rotate(90 43.3462 28.2696)" fill="#34AAFC"/>
<circle cx="43.3462" cy="50.8848" r="5.65385" transform="rotate(90 43.3462 50.8848)" fill="#34AAFC"/>
<circle cx="43.3462" cy="73.5" r="5.65385" transform="rotate(90 43.3462 73.5)" fill="#34AAFC"/>
<circle cx="43.3462" cy="96.1158" r="5.65385" transform="rotate(90 43.3462 96.1158)" fill="#34AAFC"/>
<circle cx="24.4946" cy="5.65385" r="5.65385" transform="rotate(90 24.4946 5.65385)" fill="#34AAFC"/>
<circle cx="24.4946" cy="28.2696" r="5.65385" transform="rotate(90 24.4946 28.2696)" fill="#34AAFC"/>
<circle cx="24.4946" cy="50.8848" r="5.65385" transform="rotate(90 24.4946 50.8848)" fill="#34AAFC"/>
<circle cx="24.4946" cy="73.5" r="5.65385" transform="rotate(90 24.4946 73.5)" fill="#34AAFC"/>
<circle cx="24.4946" cy="96.1158" r="5.65385" transform="rotate(90 24.4946 96.1158)" fill="#34AAFC"/>
<circle cx="5.65084" cy="5.65385" r="5.65385" transform="rotate(90 5.65084 5.65385)" fill="#34AAFC"/>
<circle cx="5.65084" cy="28.2696" r="5.65385" transform="rotate(90 5.65084 28.2696)" fill="#34AAFC"/>
<circle cx="5.65084" cy="50.8848" r="5.65385" transform="rotate(90 5.65084 50.8848)" fill="#34AAFC"/>
<circle cx="5.65084" cy="73.5" r="5.65385" transform="rotate(90 5.65084 73.5)" fill="#34AAFC"/>
<circle cx="5.65084" cy="96.1158" r="5.65385" transform="rotate(90 5.65084 96.1158)" fill="#34AAFC"/>
</g>
</svg>
